<svg viewBox="0 0 941.39 548.845" xmlns="http://www.w3.org/2000/svg" xmlns:bx="https://boxy-svg.com">
  <defs>
    <bx:grid x="0" y="0" width="94.139" height="109.769"></bx:grid>
  </defs>
  <path style="fill: rgb(5, 62, 147); stroke: rgb(5, 62, 147); vector-effect: non-scaling-stroke;" d="M 323.041 417.957 C 253.31 409.644 212.212 392.573 178.897 358.524 C 152.166 331.205 136.608 297.034 131.347 258.315 C 122.162 190.716 187.177 121.166 233.416 113.374 C 307.72 100.851 360.425 161.097 360.379 201.2 C 360.276 292.762 284.015 299.624 238.183 298.314 C 198.467 297.181 157.601 278.784 136.34 255.344 C 135.323 254.222 127.619 239.909 129.748 248.189 C 131.526 255.106 137.742 267.449 141.203 271.042 C 169.802 300.728 218.754 321.012 255.524 323.452 C 281.216 325.157 339.874 309.142 362.999 284.695 C 373.357 273.745 397.075 239.439 393.838 194.518 C 392.112 170.566 378.42 143.396 364.053 123.644 C 347.56 100.972 309.096 66.415 264.875 64.143 C 209.642 61.306 156.204 79.472 113.751 154.734 C 82.846 209.524 88.352 288.073 131.077 342.185 C 171.749 393.697 241.791 439.067 321.465 417.988"></path>
  <g id="svgGroup" stroke-linecap="round" fill-rule="evenodd" font-size="9pt" stroke="#000" stroke-width="0.25mm" fill="black" style="stroke:#000;stroke-width:0.25mm;fill:black" transform="matrix(2.433089, 0, 0, 2.433089, 372.556152, 190.077042)">
    <path d="M 58.5 29.5 A 3.232 3.232 0 0 0 58.446 29.38 Q 58.156 28.774 57.7 28.5 Q 55.2 33.6 50.55 36.5 A 25.463 25.463 0 0 1 50.296 36.656 Q 48.392 37.813 46.529 38.482 A 14.81 14.81 0 0 1 41.5 39.4 A 11.969 11.969 0 0 1 36.628 38.41 A 12.806 12.806 0 0 1 32.55 35.5 Q 30.441 33.306 28.885 30.321 A 31.194 31.194 0 0 1 26.8 25.2 A 118.418 118.418 0 0 1 32.873 19.015 A 98.988 98.988 0 0 1 49.4 6.3 Q 49.744 5.613 49.851 4.547 A 10.47 10.47 0 0 0 49.9 3.5 A 5.835 5.835 0 0 0 49.895 3.26 Q 49.868 2.603 49.687 2.222 A 0.823 0.823 0 0 0 48.9 1.7 A 4.273 4.273 0 0 0 48.343 1.738 Q 45.912 2.058 41.825 5.057 A 56.446 56.446 0 0 0 39.1 7.2 A 96.983 96.983 0 0 0 37.31 8.744 Q 31.788 13.625 25.6 20.5 A 36.26 36.26 0 0 1 25.122 17.216 A 46.063 46.063 0 0 1 24.9 12.6 A 35.382 35.382 0 0 1 24.948 10.689 Q 25.048 8.86 25.35 7.55 Q 25.8 5.6 26.8 2.8 A 0.543 0.543 0 0 0 26.829 2.751 Q 26.946 2.527 26.793 2.276 A 0.987 0.987 0 0 0 26.7 2.15 Q 26.4 1.8 26 1.8 A 3.342 3.342 0 0 1 25.288 2.339 A 4.297 4.297 0 0 1 24.45 2.7 A 7.084 7.084 0 0 0 24.275 2.758 Q 23.757 2.936 23.422 3.148 A 1.857 1.857 0 0 0 23.1 3.4 Q 22.241 4.181 21.748 6.61 A 23 23 0 0 0 21.5 8.1 Q 21 11.8 21 16.3 Q 21 20.6 21.9 24.8 Q 15.9 32 10.6 39.3 A 209.288 209.288 0 0 0 7.38 43.854 Q 4.348 48.273 2.4 51.7 Q 0.656 54.752 0.179 56.695 A 5.545 5.545 0 0 0 0 58 A 4.065 4.065 0 0 0 0.411 59.802 A 4.886 4.886 0 0 0 1.3 61.05 Q 2.6 62.4 5.5 64.3 A 35.941 35.941 0 0 1 5.74 62.573 Q 6.356 58.801 7.811 54.765 A 62.461 62.461 0 0 1 11.1 47.3 A 89.54 89.54 0 0 1 15.005 40.503 A 107.423 107.423 0 0 1 23.2 29.3 A 29.104 29.104 0 0 0 24.785 33.061 A 22.743 22.743 0 0 0 29.75 39.65 A 14.876 14.876 0 0 0 40.1 43.6 A 18.579 18.579 0 0 0 43.393 43.305 A 21.132 21.132 0 0 0 48.85 41.5 A 28.592 28.592 0 0 0 52.129 39.653 A 21.858 21.858 0 0 0 56 36.45 A 18.63 18.63 0 0 0 56.207 36.229 Q 57.726 34.575 58.356 33.064 A 5.356 5.356 0 0 0 58.8 31 Q 58.8 30.2 58.5 29.5 Z" id="0" vector-effect="non-scaling-stroke" style="stroke: rgb(5, 62, 147); fill: rgb(5, 62, 147);"></path>
    <path d="M 54.3 32.8 L 59.2 12.6 A 8.847 8.847 0 0 1 59.972 10.632 Q 60.424 9.773 61.089 8.873 A 20.095 20.095 0 0 1 62.25 7.45 A 20.101 20.101 0 0 1 67.553 3.246 A 22.976 22.976 0 0 1 68.2 2.9 A 16.247 16.247 0 0 1 72.614 1.353 A 14.397 14.397 0 0 1 75.3 1.1 Q 79.9 1.1 83.4 4.2 A 50.528 50.528 0 0 1 83.722 3.363 Q 84.245 2.04 84.583 1.457 A 2.667 2.667 0 0 1 84.75 1.2 A 1.688 1.688 0 0 1 85.605 0.603 A 2.496 2.496 0 0 1 86.1 0.5 L 91 0 L 91.3 0.2 A 7.187 7.187 0 0 0 89.621 2.172 Q 88.864 3.447 88.4 5.2 Q 85.416 16.367 84.239 21.881 A 101.83 101.83 0 0 0 84.15 22.3 A 62.159 62.159 0 0 0 83.405 26.554 Q 83 29.506 83 32 A 25.559 25.559 0 0 0 83.082 34.129 Q 83.258 36.225 83.81 37.552 A 5.578 5.578 0 0 0 84.1 38.15 A 3.649 3.649 0 0 0 86.734 40.007 A 5.775 5.775 0 0 0 87.8 40.1 A 10.002 10.002 0 0 0 90.319 39.749 Q 92.634 39.145 95.45 37.5 A 30.24 30.24 0 0 0 100.51 33.749 A 39.585 39.585 0 0 0 103.9 30.25 Q 107.9 25.6 110 19.8 Q 111.154 19.8 111.284 21.849 A 8.752 8.752 0 0 1 111.3 22.4 Q 111.3 26.16 108.594 30.254 A 26.239 26.239 0 0 1 107.25 32.1 Q 103.2 37.2 97.45 40.65 Q 93.233 43.18 89.527 43.855 A 14.656 14.656 0 0 1 86.9 44.1 A 10.125 10.125 0 0 1 84.444 43.82 A 6.757 6.757 0 0 1 80.9 41.7 Q 78.8 39.3 78.4 35.5 Q 75.9 39.1 72.1 41.4 Q 68.3 43.7 65.3 43.7 A 8.238 8.238 0 0 1 61.909 42.946 A 11.193 11.193 0 0 1 60.15 41.95 Q 57.6 40.2 56 37.65 A 13.234 13.234 0 0 1 55.011 35.773 Q 54.535 34.645 54.375 33.571 A 7.406 7.406 0 0 1 54.3 32.8 Z M 77.4 29.2 L 79.3 21 Q 79.685 19.075 80.626 14.879 A 835.583 835.583 0 0 1 80.7 14.55 Q 81.7 10.1 82.3 7.7 A 9.244 9.244 0 0 0 75.625 4.901 A 11.349 11.349 0 0 0 75.5 4.9 Q 72.4 4.9 69.9 6.55 A 14.691 14.691 0 0 0 65.901 10.404 A 14.191 14.191 0 0 0 65.8 10.55 Q 64.721 12.135 64.187 13.47 A 8.018 8.018 0 0 0 63.8 14.7 L 59.8 32.5 A 7.407 7.407 0 0 0 61.555 36.716 A 9.251 9.251 0 0 0 61.8 37 Q 63.241 38.601 64.874 38.92 A 4.293 4.293 0 0 0 65.7 39 A 6.188 6.188 0 0 0 67.019 38.845 Q 68.271 38.571 69.826 37.812 A 19.902 19.902 0 0 0 69.85 37.8 A 15.305 15.305 0 0 0 73.042 35.684 A 18.934 18.934 0 0 0 74.45 34.35 Q 76.6 32.1 77.4 29.2 Z" id="1" vector-effect="non-scaling-stroke" style="stroke: rgb(5, 62, 147); fill: rgb(5, 62, 147);"></path>
    <path d="M 103.3 35.8 L 111.8 2.7 Q 111.973 1.92 112.222 1.516 A 1.508 1.508 0 0 1 112.3 1.4 A 0.969 0.969 0 0 1 112.917 1.025 A 1.501 1.501 0 0 1 113.2 1 A 1.982 1.982 0 0 1 113.553 1.037 Q 114.104 1.139 115.044 1.516 A 19.995 19.995 0 0 1 115.25 1.6 A 18.091 18.091 0 0 1 115.834 1.853 Q 116.788 2.288 117.1 2.6 L 116.2 5.8 A 52.318 52.318 0 0 1 116.033 6.447 Q 115.755 7.498 115.209 9.462 A 719.94 719.94 0 0 1 114.85 10.75 Q 113.8 14.5 112.9 18.5 A 58.202 58.202 0 0 1 115.66 14.129 Q 117.184 11.95 118.763 10.188 A 33.888 33.888 0 0 1 119.35 9.55 A 43.552 43.552 0 0 1 121.588 7.334 Q 122.723 6.294 123.786 5.499 A 18.928 18.928 0 0 1 125.5 4.35 Q 128.3 2.7 129.8 2.7 A 2.701 2.701 0 0 1 130.566 2.823 Q 131.273 3.033 132.16 3.603 A 12.173 12.173 0 0 1 132.6 3.9 A 10.252 10.252 0 0 1 133.242 4.388 Q 134.3 5.269 134.3 5.9 A 132.629 132.629 0 0 1 133.281 11.364 Q 132.688 14.226 131.922 17.39 A 223.668 223.668 0 0 1 131.7 18.3 Q 135.8 12.7 141.5 7.15 A 47.122 47.122 0 0 1 143.865 4.987 Q 147.856 1.6 150.2 1.6 Q 151.6 1.6 153.2 2.7 A 5.05 5.05 0 0 1 154.051 3.424 Q 154.831 4.267 154.9 5.3 Q 152.038 14.156 150.335 20.211 A 202.218 202.218 0 0 0 149.95 21.6 Q 148.39 27.306 148.221 31.979 A 30.992 30.992 0 0 0 148.2 33.1 Q 148.2 35.726 148.967 37.088 A 3.449 3.449 0 0 0 149.2 37.45 A 2.953 2.953 0 0 0 150.489 38.419 Q 151.005 38.63 151.659 38.724 A 8.035 8.035 0 0 0 152.8 38.8 Q 157.821 38.8 162.571 34.294 A 28.656 28.656 0 0 0 164.6 32.15 A 45.35 45.35 0 0 0 172.403 18.985 A 52.876 52.876 0 0 0 173.3 16.5 A 2.145 2.145 0 0 1 174.895 17.199 A 3.174 3.174 0 0 1 175.15 17.5 Q 175.9 18.5 175.9 19.8 A 4.92 4.92 0 0 1 175.903 19.959 Q 175.903 23.044 172.15 28.6 Q 168.3 34.3 162.7 38.7 Q 157.1 43.1 151.7 43.1 Q 147.9 43.1 145.45 40.65 A 7.62 7.62 0 0 1 143.651 37.678 Q 143 35.778 143 33.2 Q 143 29.677 143.997 25.378 A 51.661 51.661 0 0 1 144.35 23.95 A 165.718 165.718 0 0 1 145.496 19.813 Q 146.563 16.138 148 11.7 A 55.178 55.178 0 0 0 149.072 8.48 A 61.812 61.812 0 0 0 149.3 7.7 A 0.478 0.478 0 0 0 149.206 7.421 Q 149.152 7.343 149.065 7.27 A 1.383 1.383 0 0 0 148.9 7.15 A 1.758 1.758 0 0 0 148.538 6.975 A 1.345 1.345 0 0 0 148.1 6.9 Q 146.8 6.9 142.95 10.65 A 92.329 92.329 0 0 0 138.343 15.491 A 115.879 115.879 0 0 0 135.15 19.25 Q 131.2 24.1 129.9 26.6 A 46.145 46.145 0 0 0 129.4 28.282 Q 128.632 31.026 127.399 36.202 A 624.315 624.315 0 0 0 126.6 39.6 Q 126.222 41.206 125.978 41.83 A 3.396 3.396 0 0 1 125.95 41.9 A 1.167 1.167 0 0 1 125.771 42.203 Q 125.532 42.488 125.133 42.5 A 1.171 1.171 0 0 1 125.1 42.5 A 1.831 1.831 0 0 1 124.421 42.358 Q 123.787 42.105 123.05 41.4 A 5.052 5.052 0 0 1 122.469 40.747 Q 122.187 40.363 122.044 39.979 A 2.231 2.231 0 0 1 121.9 39.2 A 4.82 4.82 0 0 1 121.948 38.594 Q 122.078 37.598 122.565 35.675 A 83.15 83.15 0 0 1 122.9 34.4 Q 127.1 19 129.7 7.7 A 2.219 2.219 0 0 0 129.23 7.228 A 1.712 1.712 0 0 0 128.2 6.9 A 2.101 2.101 0 0 0 127.382 7.103 Q 126.135 7.646 124.065 9.638 A 41.727 41.727 0 0 0 123.1 10.6 A 56.869 56.869 0 0 0 119.893 14.211 Q 117.794 16.772 115.6 19.95 Q 111.7 25.6 109.2 31.1 A 86.625 86.625 0 0 0 107.86 36.023 Q 107.228 38.628 106.661 41.557 A 145.22 145.22 0 0 0 106.5 42.4 Q 105.595 42.4 104.197 41.826 A 14.217 14.217 0 0 1 103.9 41.7 A 7.444 7.444 0 0 1 103.356 41.437 Q 102.455 40.952 102.323 40.467 A 0.632 0.632 0 0 1 102.3 40.3 A 1.48 1.48 0 0 1 102.301 40.254 Q 102.326 39.453 103.181 36.243 A 130.608 130.608 0 0 1 103.3 35.8 Z" id="2" vector-effect="non-scaling-stroke" style="stroke: rgb(5, 62, 147); fill: rgb(5, 62, 147);"></path>
    <path d="M 183.3 2 L 175.7 34 A 3.639 3.639 0 0 0 176.304 35.989 A 5.257 5.257 0 0 0 176.95 36.8 A 4.855 4.855 0 0 0 177.881 37.566 A 3.39 3.39 0 0 0 179.7 38.1 A 5.18 5.18 0 0 0 181.038 37.895 Q 183.078 37.342 186.358 35.289 A 49.654 49.654 0 0 0 186.5 35.2 Q 190.133 32.91 191.895 31.118 A 9.755 9.755 0 0 0 192.7 30.2 Q 194.9 24.8 196.3 19.4 A 220.649 220.649 0 0 0 197.025 16.519 Q 198.075 12.23 199.322 6.52 A 628.597 628.597 0 0 0 199.5 5.7 L 200.5 1.1 A 3.929 3.929 0 0 1 201.614 1.273 Q 202.096 1.416 202.616 1.675 A 9.222 9.222 0 0 1 203.45 2.15 A 6.96 6.96 0 0 1 204.359 2.831 Q 204.819 3.242 205.112 3.687 A 3.169 3.169 0 0 1 205.5 4.5 A 181.899 181.899 0 0 0 203.756 10.725 A 205.725 205.725 0 0 0 203.2 12.9 Q 202.792 14.289 201.649 18.38 A 2244.389 2244.389 0 0 0 201.1 20.35 Q 199.5 26.1 196.9 34.4 Q 191.1 52.7 185.45 64.95 Q 179.8 77.2 170 85.7 A 34.495 34.495 0 0 1 150.906 93.901 A 45.906 45.906 0 0 1 145.6 94.2 Q 139.797 94.2 135.511 92.81 A 20.865 20.865 0 0 1 133.4 92 A 21.395 21.395 0 0 1 129.961 90.083 Q 128.028 88.742 126.72 87.083 A 12.716 12.716 0 0 1 126.15 86.3 Q 123.8 82.8 123.8 78.6 A 10.555 10.555 0 0 1 123.826 77.826 Q 123.889 76.977 124.1 76.45 Q 124.4 75.7 124.6 75.1 A 26.053 26.053 0 0 0 128.084 80.488 A 20.774 20.774 0 0 0 132.85 84.65 Q 137.076 87.317 143.557 87.795 A 39.986 39.986 0 0 0 146.5 87.9 A 37.254 37.254 0 0 0 156.971 86.483 A 30.937 30.937 0 0 0 166.2 82.05 A 40.947 40.947 0 0 0 174.37 74.31 Q 177.376 70.607 179.968 65.928 A 69.797 69.797 0 0 0 180.5 64.95 Q 185.086 56.35 188.972 44.157 A 208.716 208.716 0 0 0 191.3 36.3 A 31.031 31.031 0 0 1 185.164 40.578 A 34.896 34.896 0 0 1 184.45 40.95 A 26.741 26.741 0 0 1 182.391 41.893 Q 180.212 42.773 178.566 42.884 A 6.907 6.907 0 0 1 178.1 42.9 A 6.131 6.131 0 0 1 175.139 42.123 A 7.789 7.789 0 0 1 174.45 41.7 Q 172.7 40.5 171.55 38.65 A 9.188 9.188 0 0 1 170.872 37.353 Q 170.4 36.225 170.4 35.2 Q 173.1 22.9 175.5 12.7 A 1583.728 1583.728 0 0 1 176.069 10.15 Q 176.623 7.675 177.044 5.838 A 423.616 423.616 0 0 1 177.4 4.3 Q 177.754 2.886 178.342 2.253 A 1.938 1.938 0 0 1 178.5 2.1 Q 179.2 1.5 180.7 1.5 A 7.119 7.119 0 0 1 183.056 1.911 A 8.168 8.168 0 0 1 183.3 2 Z" id="3" vector-effect="non-scaling-stroke" style="stroke: rgb(5, 62, 147); fill: rgb(5, 62, 147);"></path>
  </g>
  <g id="g-1" stroke-linecap="round" fill-rule="evenodd" font-size="9pt" stroke="#000" stroke-width="0.25mm" fill="black" style="stroke:#000;stroke-width:0.25mm;fill:black" transform="matrix(1.259339, 0, 0, 1.259339, 345.972412, 308.189301)">
    <path d="M 9.229 44.238 L 14.796 46.338 Q 7.143 66.162 6.715 74.755 A 19.698 19.698 0 0 0 6.69 75.732 A 19.069 19.069 0 0 0 7.775 82.447 Q 10.924 90.843 23.205 91.456 A 39.957 39.957 0 0 0 25.196 91.504 A 31.584 31.584 0 0 0 32.377 90.639 A 41.84 41.84 0 0 0 37.916 88.916 Q 44.629 86.328 49.512 80.713 A 8.948 8.948 0 0 0 44.204 75.731 A 11.666 11.666 0 0 0 43.555 75.513 A 19.104 19.104 0 0 0 41.031 74.962 Q 36.351 74.219 27.1 74.219 L 29.297 65.527 L 60.694 65.527 L 60.694 74.316 L 54.102 74.316 A 15.89 15.89 0 0 1 54.877 76.608 Q 55.235 78.039 55.235 79.36 A 8.857 8.857 0 0 1 54.835 82.031 Q 54.214 85.447 51.201 88.832 A 26 26 0 0 1 49.488 90.576 A 32.611 32.611 0 0 1 43.579 94.899 A 43.835 43.835 0 0 1 37.916 97.632 A 38.263 38.263 0 0 1 26.481 100.341 A 35.691 35.691 0 0 1 23.829 100.439 A 32.841 32.841 0 0 1 16.48 99.663 A 22.271 22.271 0 0 1 6.519 94.678 A 18.738 18.738 0 0 1 0.575 84.21 A 28.14 28.14 0 0 1 0.001 78.369 A 37.472 37.472 0 0 1 0.577 72.281 Q 2.231 62.385 8.626 45.791 A 323.666 323.666 0 0 1 9.229 44.238 Z M 25.196 111.719 L 31.104 105.811 L 36.817 111.621 L 31.104 117.432 L 25.196 111.719 Z M 11.817 111.719 L 17.628 105.811 L 23.292 111.621 L 17.628 117.432 L 11.817 111.719 Z" id="path-1" vector-effect="non-scaling-stroke" style="fill: rgb(5, 62, 147); stroke: rgb(5, 62, 147);"></path>
    <path d="M 60.694 65.527 Q 65.381 65.527 69.434 62.671 A 29.22 29.22 0 0 0 76.417 55.713 A 628.741 628.741 0 0 0 82.178 47.51 Q 87.441 39.845 92.435 38.166 A 8.685 8.685 0 0 1 95.215 37.695 A 15.512 15.512 0 0 1 107.001 42.866 A 20.961 20.961 0 0 1 108.155 44.214 A 23.748 23.748 0 0 1 113.282 59.326 Q 113.282 64.786 112.334 68.004 A 13.814 13.814 0 0 1 112.208 68.408 A 14.253 14.253 0 0 1 109.426 74.119 A 16.906 16.906 0 0 1 108.961 74.683 A 7.986 7.986 0 0 1 103.149 77.522 A 10.491 10.491 0 0 1 102.54 77.539 A 14.682 14.682 0 0 1 100.066 77.298 Q 97.553 76.863 94.027 75.642 A 84.442 84.442 0 0 1 90.479 74.316 A 67.108 67.108 0 0 1 82.96 70.801 A 50.674 50.674 0 0 1 76.612 66.699 Q 69.727 74.316 60.694 74.316 Q 58.218 74.316 57.8 71.28 A 10.004 10.004 0 0 1 57.715 69.922 A 8.342 8.342 0 0 1 57.808 68.641 Q 57.912 67.969 58.136 67.419 A 4.062 4.062 0 0 1 58.497 66.724 A 2.732 2.732 0 0 1 59.228 65.955 Q 59.79 65.567 60.537 65.531 A 3.231 3.231 0 0 1 60.694 65.527 Z M 90.277 48.152 A 13.347 13.347 0 0 0 89.405 49.121 Q 86.768 52.344 84.62 55.688 A 304.482 304.482 0 0 1 83.619 57.237 Q 82.374 59.15 81.657 60.172 A 33.726 33.726 0 0 1 81.495 60.4 A 40.452 40.452 0 0 0 87.105 63.952 A 52.86 52.86 0 0 0 92.237 66.309 A 52.014 52.014 0 0 0 100.335 68.82 A 44.535 44.535 0 0 0 104.493 69.531 A 15.692 15.692 0 0 0 105.79 65.891 Q 106.397 63.268 106.397 59.961 Q 106.397 54.102 102.881 50 A 13.957 13.957 0 0 0 100.42 47.707 A 9.191 9.191 0 0 0 94.971 45.898 Q 92.522 45.898 90.277 48.152 Z" id="path-2" vector-effect="non-scaling-stroke" style="fill: rgb(5, 62, 147); stroke: rgb(5, 62, 147);"></path>
    <path d="M 135.352 35.107 L 135.352 74.316 L 128.272 74.316 L 128.272 35.107 A 178.324 178.324 0 0 0 128.172 28.967 Q 128.071 26.04 127.868 23.503 A 83.73 83.73 0 0 0 127.564 20.41 A 73.211 73.211 0 0 0 126.678 14.856 Q 126.123 12.034 125.319 8.934 A 127.011 127.011 0 0 0 124.756 6.836 L 131.788 4.932 Q 133.676 11.813 134.446 17.433 A 64.667 64.667 0 0 1 134.669 19.238 A 100.682 100.682 0 0 1 135.072 24.188 Q 135.352 28.976 135.352 35.107 Z" id="path-3" vector-effect="non-scaling-stroke" style="fill: rgb(5, 62, 147); stroke: rgb(5, 62, 147);"></path>
    <path d="M 175.782 65.527 L 175.782 74.316 A 13.066 13.066 0 0 1 170.613 73.326 Q 167.808 72.132 165.75 69.498 A 15.463 15.463 0 0 1 165.479 69.141 L 165.479 72.217 Q 165.284 80.225 158.326 88.965 Q 151.368 97.705 145.264 97.705 Q 142.151 97.705 136.45 95.764 A 91.311 91.311 0 0 1 132.569 94.336 L 134.571 88.721 A 35.026 35.026 0 0 0 137.744 89.636 Q 139.318 90.005 140.717 90.147 A 16.574 16.574 0 0 0 142.383 90.234 A 8.218 8.218 0 0 0 145.818 89.415 Q 148.439 88.211 151.352 85.24 A 37.647 37.647 0 0 0 152.613 83.887 Q 156.427 79.593 157.662 75.501 A 13.351 13.351 0 0 0 158.253 71.631 A 60.401 60.401 0 0 0 157.984 66.33 Q 157.443 60.271 155.81 51.323 A 376.826 376.826 0 0 0 153.956 41.895 L 161.28 40.43 L 163.672 52.93 A 26.763 26.763 0 0 0 165.136 57.838 Q 166.239 60.481 167.841 62.216 A 10.314 10.314 0 0 0 175.782 65.527 Z M 150.147 23.535 L 155.958 17.725 L 161.671 23.535 L 155.958 29.297 L 150.147 23.535 Z" id="path-4" vector-effect="non-scaling-stroke" style="fill: rgb(5, 62, 147); stroke: rgb(5, 62, 147);"></path>
    <path d="M 175.733 65.527 A 474.542 474.542 0 0 0 182.821 65.477 Q 192.914 65.326 199.781 64.722 A 74.718 74.718 0 0 0 206.78 63.789 Q 211.574 62.904 215.43 61.426 Q 215.723 57.422 215.723 53.418 A 103.214 103.214 0 0 1 208.755 54.556 Q 205.361 54.984 202.354 55.091 A 55.165 55.165 0 0 1 200.391 55.127 A 22.842 22.842 0 0 1 196.546 54.824 Q 194.447 54.465 192.777 53.68 A 10.693 10.693 0 0 1 190.235 52.026 A 8.97 8.97 0 0 1 187.894 48.615 Q 186.755 45.82 186.72 41.621 A 32.087 32.087 0 0 1 186.719 41.357 A 23.257 23.257 0 0 1 190.738 28.337 A 28.926 28.926 0 0 1 191.529 27.197 A 19.757 19.757 0 0 1 194.709 23.721 A 12.431 12.431 0 0 1 202.93 20.605 A 16.152 16.152 0 0 1 215.156 26.099 A 24.25 24.25 0 0 1 217.09 28.467 Q 222.754 36.328 222.754 51.025 A 97.937 97.937 0 0 1 222.758 51.877 Q 222.758 55.259 222.514 57.834 A 33.309 33.309 0 0 1 222.217 60.156 A 16.008 16.008 0 0 1 221.211 63.717 A 13.208 13.208 0 0 1 219.825 66.235 A 11.41 11.41 0 0 1 217.989 68.293 A 8.921 8.921 0 0 1 215.528 69.824 A 41.9 41.9 0 0 1 208.848 71.79 Q 197.709 74.204 177.616 74.311 A 353.539 353.539 0 0 1 175.733 74.316 Q 173.257 74.316 172.839 71.28 A 10.004 10.004 0 0 1 172.754 69.922 A 8.342 8.342 0 0 1 172.847 68.641 Q 172.951 67.969 173.175 67.419 A 4.062 4.062 0 0 1 173.536 66.724 A 2.732 2.732 0 0 1 174.267 65.955 Q 174.829 65.567 175.576 65.531 A 3.231 3.231 0 0 1 175.733 65.527 Z M 202.54 28.906 A 6.838 6.838 0 0 0 198.368 30.357 Q 197.389 31.088 196.484 32.188 A 14.791 14.791 0 0 0 196.07 32.715 A 15.125 15.125 0 0 0 194.068 36.237 A 12.003 12.003 0 0 0 193.213 40.674 A 17.396 17.396 0 0 0 193.288 42.351 Q 193.462 44.143 194.043 45.179 A 2.979 2.979 0 0 0 194.776 46.069 A 3.575 3.575 0 0 0 195.817 46.607 Q 197.566 47.222 201.246 47.302 A 52.663 52.663 0 0 0 202.393 47.314 A 51.403 51.403 0 0 0 210.248 46.685 A 63.831 63.831 0 0 0 215.235 45.703 A 25.852 25.852 0 0 0 213.528 38.045 A 23.111 23.111 0 0 0 211.451 34.009 A 12.347 12.347 0 0 0 208.847 31.052 A 9.753 9.753 0 0 0 202.54 28.906 Z M 204.053 5.811 L 209.913 0 L 215.626 5.811 L 209.913 11.621 L 204.053 5.811 Z M 190.626 5.811 L 196.436 0 L 202.149 5.811 L 196.436 11.621 L 190.626 5.811 Z" id="4" vector-effect="non-scaling-stroke" style="fill: rgb(5, 62, 147); stroke: rgb(5, 62, 147);"></path>
    <path d="M 244.776 35.107 L 244.776 74.316 L 237.696 74.316 L 237.696 35.107 A 178.324 178.324 0 0 0 237.596 28.967 Q 237.495 26.04 237.291 23.503 A 83.73 83.73 0 0 0 236.988 20.41 A 73.211 73.211 0 0 0 236.102 14.856 Q 235.546 12.034 234.743 8.934 A 127.011 127.011 0 0 0 234.18 6.836 L 241.212 4.932 Q 243.1 11.813 243.87 17.433 A 64.667 64.667 0 0 1 244.092 19.238 A 100.682 100.682 0 0 1 244.495 24.188 Q 244.776 28.976 244.776 35.107 Z M 247.901 85.01 L 246.778 89.697 A 14.228 14.228 0 0 0 244.577 89.278 A 11.918 11.918 0 0 0 243.311 89.209 A 11.292 11.292 0 0 0 240.186 89.617 A 8.062 8.062 0 0 0 235.694 92.822 A 11.268 11.268 0 0 0 239.548 98.16 A 15.526 15.526 0 0 0 241.602 99.512 L 252.198 94.434 L 254.102 98.633 L 229.981 109.814 L 228.077 105.713 L 236.573 101.709 A 16.002 16.002 0 0 1 234.216 99.514 Q 232.978 98.08 232.398 96.543 A 7.844 7.844 0 0 1 231.885 93.75 A 9.796 9.796 0 0 1 232.378 90.574 A 8.105 8.105 0 0 1 234.986 86.865 A 11.155 11.155 0 0 1 240.943 84.415 A 14.624 14.624 0 0 1 242.579 84.326 A 19.842 19.842 0 0 1 245.085 84.494 Q 246.425 84.665 247.901 85.01 Z" id="5" vector-effect="non-scaling-stroke" style="fill: rgb(5, 62, 147); stroke: rgb(5, 62, 147);"></path>
  </g>
</svg>